# xmcd
#
# Track frame offsets:
#	150
#	20102
#	40440
#	52878
#	74587
#	91350
#	108973
#	120220
#	139330
#
# Disc length: 1988 seconds
#
# Revision: 1
# Processed by: cddbd v1.5.2PL0 Copyright (c) Steve Scherf et al.
# Submitted via: audiograbber 1.83.01
#
DISCID=7b07c209
DTITLE=Wojciech - Tähtiöitä
DYEAR=2004
DGENRE=Alternative Rock
TTITLE0=Pieni, puinen sukellusvene
TTITLE1=Yli unen laidan
TTITLE2=Syysunelma
TTITLE3=Ilmalaivalla Huimausvuorille
TTITLE4=Sateenkaaren tuoksuinen ilta
TTITLE5=Sopivan synkkää ja hieman hui
TTITLE6=Yö tähtienvälisellä huoltoasemalla
TTITLE7=Kuuliainen ampiainen
TTITLE8=[untitled]
EXTD=
EXTT0=
EXTT1=
EXTT2=
EXTT3=
EXTT4=
EXTT5=
EXTT6=
EXTT7=
EXTT8=
PLAYORDER=
